<?xml version="1.0" encoding="utf-8"?>
<!-- Generator: Adobe Illustrator 15.0.0, SVG Export Plug-In  -->
<!DOCTYPE svg PUBLIC "-//W3C//DTD SVG 1.1//EN" "http://www.w3.org/Graphics/SVG/1.1/DTD/svg11.dtd" [
	<!ENTITY ns_flows "http://ns.adobe.com/Flows/1.0/">
]>
<svg version="1.1"
	 xmlns="http://www.w3.org/2000/svg" xmlns:xlink="http://www.w3.org/1999/xlink" xmlns:a="http://ns.adobe.com/AdobeSVGViewerExtensions/3.0/"
	 x="0px" y="0px" width="101px" height="24px" viewBox="-0.117 -0.364 101 24"
	 overflow="visible" enable-background="new -0.117 -0.364 101 24" xml:space="preserve">
<defs>
</defs>
<path fill="#FFFFFF" d="M37.058,9.849l0.455-2.172c-0.801,0.122-1.674,0.215-2.559,0.251c-0.951,0-1.324-0.474-1.152-1.425
	c0.191-0.783,0.611-1.221,1.288-1.361c1.1-0.111,2.117-0.223,3.041-0.344l0.29-1.36c0.064-0.317,0.246-0.614,0.529-0.848
	c0.271-0.233,0.696-0.373,1.253-0.41c0.48,0.019,0.824,0.129,1.044,0.316c0.221,0.233,0.318,0.531,0.238,0.941l-0.187,0.876
	c0.514-0.066,0.977-0.159,1.413-0.252c0.313-0.094,0.629-0.139,0.902-0.159c0.513,0,0.806,0.14,0.93,0.392
	c0.223,0.28,0.313,0.624,0.223,1.034c-0.098,0.466-0.335,0.812-0.674,0.988c-0.912,0.373-2.052,0.671-3.416,0.904l-0.553,2.628
	h2.412c0.467,0,0.768,0.093,0.932,0.271c0.2,0.138,0.268,0.51,0.144,1.055c-0.102,0.481-0.241,0.816-0.412,1.003
	c-0.326,0.316-0.751,0.446-1.254,0.446h-2.412l-0.271,1.249c-0.091,0.409-0.191,0.782-0.252,1.081h2.535
	c0.549,0,0.921,0.111,1.127,0.316c0.193,0.187,0.218,0.577,0.104,1.138c-0.097,0.466-0.288,0.801-0.523,1.043
	c-0.344,0.317-0.791,0.486-1.34,0.486H37.8c-0.3,0.538-0.625,1.079-0.992,1.525c-1.033,1.417-2.201,2.572-3.527,3.505
	c-0.367,0.186-0.774,0.28-1.241,0.28c-0.448-0.038-0.798-0.224-1.043-0.597c-0.137-0.225-0.188-0.521-0.171-0.858
	c0.087-0.393,0.281-0.765,0.578-1.08c0.59-0.504,1.217-1.063,1.901-1.678c0.399-0.372,0.733-0.746,1.038-1.098h-1.881
	c-0.513,0-0.875-0.134-1.102-0.374c-0.188-0.205-0.213-0.597-0.1-1.155c0.123-0.561,0.316-0.913,0.585-1.138
	c0.278-0.205,0.688-0.316,1.249-0.316h2.803c0.125-0.335,0.227-0.708,0.299-1.081l0.27-1.249h-2.423
	c-0.41,0-0.707-0.113-0.891-0.335c-0.238-0.187-0.278-0.56-0.154-1.114c0.109-0.525,0.303-0.892,0.628-1.104
	c0.21-0.13,0.552-0.223,1.007-0.223H37.058z M54.188,4.984c-0.325,1.519-1.157,3.476-2.51,5.923c0.422,1.923,0.452,3.768,0.08,5.502
	c-0.294,1.379-0.764,2.365-1.386,2.961c-0.724,0.784-1.607,1.156-2.715,1.156c-0.876,0-1.671-0.13-2.347-0.427l-0.425,1.975
	c-0.201,0.745-0.761,1.137-1.673,1.175c-0.915-0.038-1.313-0.43-1.205-1.175l3.695-17.369c0.229-1.053,0.762-1.612,1.609-1.612
	h5.574C54.01,3.092,54.451,3.745,54.188,4.984 M47.314,17.489c0.502,0,0.896-0.223,1.181-0.69c0.2-0.297,0.376-0.781,0.523-1.472
	c0.203-0.969,0.096-2.068-0.309-3.298c-0.094-0.317-0.094-0.636-0.034-0.936c0.057-0.281,0.151-0.513,0.34-0.742
	c0.999-1.471,1.669-2.879,1.955-4.211c0.016-0.094-0.037-0.168-0.148-0.168h-2.517l-2.401,11.312
	C46.432,17.414,46.894,17.489,47.314,17.489"/>
<path fill="#FFFFFF" d="M61.521,3.281c0.096-0.222,0.222-0.434,0.394-0.562c0.218-0.213,0.646-0.323,1.178-0.323
	c0.516,0,0.866,0.11,1,0.295c0.126,0.138,0.18,0.341,0.174,0.59h2.986c0.221,0,0.398,0.046,0.492,0.138
	c0.097,0.092,0.118,0.277,0.049,0.571c-0.046,0.267-0.133,0.452-0.222,0.543c-0.179,0.185-0.376,0.248-0.651,0.248H63.99
	L63.867,5.39h3.299c0.221,0,0.375,0.074,0.489,0.166c0.093,0.092,0.117,0.267,0.047,0.562c-0.045,0.277-0.133,0.461-0.223,0.554
	c-0.179,0.174-0.376,0.248-0.652,0.248h-3.849c0.045,0.047,0.094,0.092,0.127,0.111c0.073,0.109,0.142,0.248,0.151,0.404h3.186
	c0.241,0,0.415,0.074,0.488,0.167c0.096,0.083,0.14,0.267,0.074,0.543c-0.048,0.267-0.133,0.452-0.224,0.544
	c-0.18,0.184-0.379,0.277-0.655,0.277h-3.115l-0.12,0.59c1.428-0.046,2.836-0.092,4.211-0.167c0.166,0,0.297,0.091,0.441,0.23
	c0.045,0.157,0.05,0.34,0.012,0.568c-0.058,0.228-0.166,0.432-0.3,0.565c-0.154,0.144-0.35,0.202-0.573,0.224
	c-0.094,0-0.171,0.03-0.208,0.03c-0.032,0.062,0,0.114-0.008,0.154c-0.036,0.089-0.132,0.327-0.276,0.643h6.872
	c0.831,0,1.164,0.405,0.986,1.214l-0.681,3.208c-0.162,0.849-0.695,1.252-1.505,1.252h-6.154c0.144,0.221,0.211,0.48,0.195,0.794
	h5.97c1.233,0,1.748,0.553,1.532,1.583l-0.226,0.978c-0.139,0.72-0.427,1.217-0.847,1.514c-0.439,0.294-0.981,0.439-1.702,0.439
	h-1.105c-0.35,0-0.695-0.019-1.091-0.054c-0.402-0.039-0.7-0.109-0.932-0.276c-0.183-0.22-0.238-0.423-0.204-0.646
	c0.023-0.13,0.081-0.239,0.175-0.349c0.211-0.168,0.471-0.276,0.795-0.353c0.307-0.074,0.604-0.092,0.899-0.092h0.865
	c0.187,0,0.282-0.018,0.294-0.091l0.159-0.702c0.006-0.034-0.06-0.092-0.169-0.092h-4.792l-0.33,1.586
	c-0.083,0.386-0.268,0.719-0.52,0.975c-0.319,0.37-0.775,0.555-1.31,0.555c-0.553,0-0.889-0.185-1.069-0.516
	c-0.175-0.276-0.207-0.628-0.121-1.014l0.328-1.586h-4.699c-0.133,0-0.196,0.075-0.22,0.186l-0.278,1.328
	c-0.198,0.718-0.763,1.104-1.655,1.14c-0.902-0.036-1.296-0.422-1.191-1.14l0.458-2.14c0.17-0.83,0.875-1.234,2.119-1.234h5.879
	c0.134-0.33,0.291-0.607,0.544-0.794h-5.975c-0.843,0-1.159-0.403-0.983-1.252l0.683-3.208c0.163-0.809,0.662-1.214,1.505-1.214
	h4.587c0.088-0.185,0.18-0.387,0.293-0.611c-3.018,0.17-5.444,0.242-7.282,0.242c-0.318,0-0.509-0.072-0.585-0.222
	c-0.082-0.144-0.082-0.346-0.021-0.663c0.066-0.276,0.178-0.498,0.343-0.635c0.115-0.093,0.328-0.158,0.622-0.158
	c1.147-0.026,2.261-0.074,3.394-0.119l0.134-0.672h-2.929c-0.221,0-0.37-0.074-0.449-0.213c-0.122-0.093-0.146-0.295-0.071-0.608
	c0.05-0.277,0.157-0.46,0.317-0.571c0.107-0.092,0.28-0.139,0.535-0.139h3.008c0.082-0.156,0.216-0.295,0.325-0.387
	c0.044-0.037,0.127-0.082,0.208-0.129h-3.687c-0.22,0-0.394-0.074-0.48-0.211c-0.112-0.083-0.134-0.296-0.076-0.59
	c0.059-0.266,0.168-0.47,0.337-0.59c0.106-0.092,0.275-0.138,0.542-0.138h3.276l0.124-0.608h-2.838
	c-0.221,0-0.375-0.045-0.462-0.184c-0.112-0.11-0.134-0.312-0.069-0.607c0.051-0.277,0.164-0.479,0.328-0.59
	c0.103-0.074,0.277-0.12,0.521-0.12H61.521z M70.474,15.711l0.112-0.555H59.75l-0.114,0.555c-0.05,0.184,0.032,0.237,0.217,0.237
	h10.281C70.319,15.949,70.422,15.895,70.474,15.711 M70.82,13.995l0.093-0.421c0.052-0.187-0.025-0.277-0.21-0.277H60.42
	c-0.184,0-0.293,0.091-0.341,0.277l-0.093,0.421H70.82z M73.139,3.99l0.081-0.369c0.131-0.653,0.675-1.023,1.548-1.069
	c0.846,0,1.227,0.37,1.105,1.069L75.792,3.99h1.42c0.312,0,0.539,0.065,0.683,0.203c0.127,0.11,0.157,0.359,0.067,0.774
	c-0.061,0.358-0.194,0.589-0.31,0.728c-0.222,0.22-0.518,0.341-0.887,0.341h-1.4l-0.691,3.261c-0.147,0.646-0.455,1.143-0.942,1.507
	c-0.497,0.429-1.104,0.631-1.842,0.631c-0.718,0-1.382-0.111-1.964-0.365c-0.318-0.173-0.406-0.52-0.311-0.973l0.031-0.182
	c-0.097,0.027-0.132,0.027-0.188,0.027c-0.331,0-0.581-0.048-0.705-0.186c-0.114-0.091-0.168-0.201-0.159-0.368
	c-0.124-0.451-0.316-1.042-0.559-1.77c-0.031-0.046,0.002-0.111,0.012-0.185c0.02-0.11,0.08-0.249,0.183-0.404
	c0.121-0.186,0.316-0.342,0.593-0.452c0.157-0.074,0.332-0.12,0.499-0.12c0.405,0,0.676,0.139,0.803,0.369
	c0.188,0.203,0.359,0.59,0.514,1.179c0.097,0.405,0.152,0.728,0.094,0.959l-0.005,0.018c0.036,0.019,0.054,0.019,0.054,0.019
	c0.232,0.138,0.481,0.212,0.701,0.212c0.369,0,0.577-0.138,0.628-0.433l0.583-2.746h-3.978c-0.333,0-0.539-0.093-0.654-0.277
	c-0.161-0.139-0.192-0.387-0.104-0.792c0.086-0.387,0.225-0.664,0.432-0.803c0.168-0.109,0.422-0.174,0.751-0.174H73.139z"/>
<path fill="#FFFFFF" d="M82.483,7.187c0.029,0.046,0.044,0.075,0.062,0.075l0.678-3.179c0.1-0.479,0.311-0.848,0.67-1.115
	c0.288-0.277,0.662-0.416,1.159-0.416c0.462,0,0.788,0.139,0.997,0.416c0.21,0.267,0.296,0.635,0.195,1.115l-0.57,2.653
	c0.061-0.027,0.101-0.047,0.161-0.064c0.178-0.074,0.332-0.121,0.499-0.121c0.404,0,0.677,0.138,0.802,0.369
	c0.248,0.388,0.47,1.134,0.678,2.266c0.109,0.757,0.155,1.347,0.061,1.792c-0.074,0.326-0.209,0.571-0.397,0.716
	c-0.28,0.221-0.598,0.35-0.967,0.35c-0.388,0-0.656-0.036-0.783-0.146c-0.112-0.092-0.186-0.203-0.178-0.369
	c-0.077-0.723-0.19-1.566-0.329-2.561l-2.719,12.752c-0.085,0.386-0.27,0.719-0.501,0.975c-0.356,0.37-0.813,0.555-1.346,0.555
	c-0.517,0-0.873-0.185-1.054-0.516c-0.175-0.276-0.207-0.628-0.121-1.014l2.375-11.21c-0.863,2.124-1.485,3.486-1.854,4.133
	c-0.217,0.405-0.639,0.608-1.284,0.608c-0.406,0-0.699-0.111-0.878-0.369c-0.211-0.146-0.268-0.46-0.143-0.978
	c0.03-0.163,0.113-0.44,0.25-0.809c0.961-1.731,1.834-3.584,2.601-5.566c0.218-0.405,0.511-0.608,0.915-0.608
	C81.923,6.92,82.237,7.012,82.483,7.187 M95.773,2.894c0.246,0.276,0.331,0.635,0.234,1.096l-0.395,1.862h3.206
	c0.461,0,0.791,0.109,0.977,0.312c0.208,0.184,0.271,0.571,0.127,1.179c-0.107,0.525-0.276,0.867-0.436,1.051
	c-0.335,0.313-0.764,0.479-1.318,0.479h-5.768l-2.066,9.748c-0.105,0.497,0.078,0.719,0.557,0.719h5.14
	c0.773,0,1.056,0.498,0.847,1.492c-0.208,1.016-0.699,1.514-1.474,1.514h-6.282c-1.844,0-2.569-0.942-2.182-2.747l2.293-10.726
	h-0.461c-0.424,0-0.756-0.12-0.953-0.369c-0.223-0.203-0.284-0.589-0.148-1.162c0.119-0.589,0.334-0.977,0.67-1.197
	c0.215-0.185,0.565-0.294,1.082-0.294h2.93l0.395-1.862c0.086-0.387,0.296-0.756,0.689-1.115c0.274-0.202,0.644-0.323,1.197-0.323
	C95.187,2.552,95.572,2.673,95.773,2.894"/>
<path fill="#FFFFFF" d="M6.308,13.677c0.266-1.113,0.923-2.097,2.571-2.097c1.639,0,1.904,0.983,1.639,2.097l-1.53,7.455
	c-0.256,1.135-0.924,2.116-2.561,2.116c-1.648,0-1.914-0.981-1.648-2.116L6.308,13.677z"/>
<path fill="#FFFFFF" d="M21.367,6.09h-4.475c-1.358,0-2.305-0.701-2.049-1.993c0.289-1.302,1.526-1.993,2.883-1.993H31.4
	c1.359,0,2.306,0.691,2.016,1.993C33.16,5.389,31.923,6.09,30.565,6.09h-4.476l-3.14,14.796c-0.312,1.403-1.446,2.361-2.884,2.361
	c-1.447,0-2.16-0.958-1.848-2.361L21.367,6.09z"/>
<path fill="#FFFFFF" d="M11.572,4.399C11.572,1.967,8.982,0,5.78,0C2.59,0,0,1.967,0,4.399c0,2.434,2.59,4.4,5.78,4.4
	c0.266,0,0.51-0.025,0.757-0.055l2.736,1.604V7.896C10.657,7.087,11.572,5.827,11.572,4.399z"/>
</svg>
