<?xml version="1.0" encoding="utf-8"?>
<!-- Generator: Adobe Illustrator 15.0.0, SVG Export Plug-In . SVG Version: 6.00 Build 0)  -->
<!DOCTYPE svg PUBLIC "-//W3C//DTD SVG 1.1//EN" "http://www.w3.org/Graphics/SVG/1.1/DTD/svg11.dtd">
<svg version="1.1" id="圖層_1" xmlns="http://www.w3.org/2000/svg" xmlns:xlink="http://www.w3.org/1999/xlink" x="0px" y="0px"
	 width="150px" height="42.677px" viewBox="8 0 150 42.677" enable-background="new 8 0 150 42.677" xml:space="preserve">
<g>
	<path fill="#00A0E9" d="M67.497,18.074l0.847-3.979c-1.479,0.211-3.082,0.385-4.706,0.467c-1.734,0-2.436-0.884-2.107-2.621
		c0.351-1.44,1.11-2.243,2.35-2.495c2.031-0.209,3.892-0.423,5.586-0.635l0.528-2.494c0.128-0.592,0.458-1.136,0.972-1.562
		c0.511-0.423,1.282-0.675,2.313-0.761c0.877,0.039,1.511,0.252,1.903,0.594c0.418,0.417,0.594,0.971,0.436,1.729L75.28,7.926
		c0.957-0.13,1.793-0.296,2.593-0.464c0.586-0.167,1.154-0.256,1.669-0.296c0.927,0,1.468,0.251,1.705,0.72
		c0.404,0.509,0.564,1.138,0.404,1.904c-0.185,0.842-0.616,1.479-1.232,1.814c-1.667,0.68-3.773,1.226-6.273,1.65l-1.022,4.821h4.44
		c0.843,0,1.403,0.166,1.709,0.508c0.37,0.25,0.48,0.926,0.264,1.94c-0.189,0.889-0.439,1.482-0.769,1.825
		c-0.589,0.593-1.36,0.839-2.292,0.839h-4.44l-0.482,2.287c-0.166,0.76-0.35,1.439-0.47,1.98h4.655c1.015,0,1.688,0.219,2.07,0.593
		c0.352,0.346,0.41,1.066,0.195,2.082c-0.183,0.837-0.525,1.479-0.953,1.899c-0.636,0.592-1.458,0.891-2.473,0.891h-5.709
		c-0.556,1.014-1.145,1.979-1.827,2.828c-1.901,2.582-4.041,4.69-6.478,6.428c-0.664,0.334-1.425,0.503-2.265,0.503
		c-0.832-0.08-1.477-0.426-1.929-1.096c-0.245-0.422-0.338-0.975-0.302-1.565c0.151-0.722,0.509-1.392,1.061-1.982
		c1.087-0.938,2.229-1.953,3.484-3.086c0.737-0.681,1.349-1.361,1.911-2.029h-3.464c-0.933,0-1.605-0.22-2.01-0.681
		c-0.344-0.386-0.401-1.096-0.187-2.109c0.215-1.016,0.57-1.699,1.076-2.083c0.502-0.372,1.266-0.591,2.28-0.591h5.154
		c0.221-0.632,0.409-1.311,0.554-1.982l0.487-2.286h-4.44c-0.765,0-1.31-0.209-1.646-0.632c-0.43-0.336-0.498-1.014-0.283-2.03
		c0.202-0.969,0.559-1.644,1.147-2.026c0.395-0.256,1.019-0.422,1.866-0.422L67.497,18.074L67.497,18.074L67.497,18.074z
		 M98.945,9.151c-0.592,2.791-2.124,6.383-4.586,10.865c0.763,3.552,0.802,6.936,0.124,10.112c-0.533,2.532-1.385,4.343-2.548,5.449
		c-1.325,1.441-2.946,2.11-4.978,2.11c-1.608,0-3.074-0.247-4.31-0.798l-0.771,3.638c-0.373,1.349-1.416,2.068-3.08,2.147
		c-1.674-0.079-2.407-0.799-2.211-2.147l6.779-31.882c0.418-1.948,1.392-2.958,2.954-2.958h10.237
		C98.627,5.686,99.427,6.869,98.945,9.151 M86.325,32.107c0.932,0,1.656-0.426,2.178-1.261c0.364-0.553,0.679-1.439,0.953-2.715
		c0.377-1.772,0.169-3.804-0.578-6.041c-0.168-0.594-0.168-1.187-0.05-1.734c0.104-0.509,0.28-0.931,0.621-1.355
		c1.851-2.703,3.07-5.284,3.598-7.733c0.034-0.173-0.071-0.296-0.278-0.296h-4.615l-4.409,20.762
		C84.705,31.977,85.566,32.107,86.325,32.107"/>
	<path fill="#000017" d="M108.518,17.004c0.123-0.294,0.292-0.553,0.511-0.733c0.289-0.257,0.811-0.405,1.513-0.405
		c0.676,0,1.114,0.147,1.296,0.379c0.139,0.172,0.222,0.437,0.213,0.757h3.824c0.291,0,0.519,0.059,0.642,0.178
		c0.126,0.113,0.158,0.345,0.071,0.729c-0.066,0.347-0.18,0.581-0.293,0.7c-0.219,0.233-0.475,0.319-0.82,0.319h-3.771l-0.165,0.789
		h4.235c0.293,0,0.473,0.087,0.625,0.207c0.122,0.118,0.156,0.352,0.085,0.731c-0.082,0.352-0.193,0.583-0.307,0.702
		c-0.221,0.233-0.476,0.318-0.822,0.318h-4.967c0.069,0.06,0.125,0.119,0.173,0.148c0.09,0.146,0.161,0.319,0.176,0.529h4.115
		c0.306,0,0.515,0.083,0.635,0.201c0.124,0.118,0.159,0.346,0.08,0.703c-0.068,0.347-0.179,0.586-0.294,0.704
		c-0.219,0.227-0.481,0.348-0.825,0.348h-4.013l-0.158,0.757c1.829-0.053,3.649-0.12,5.419-0.202c0.209,0,0.387,0.118,0.552,0.293
		c0.084,0.198,0.089,0.438,0.02,0.729c-0.057,0.293-0.2,0.55-0.394,0.732c-0.18,0.171-0.425,0.253-0.733,0.29
		c-0.108,0-0.208,0.027-0.262,0.027c-0.028,0.082,0,0.146-0.012,0.2c-0.034,0.117-0.145,0.41-0.355,0.822h8.853
		c1.051,0,1.496,0.521,1.265,1.581l-0.875,4.115c-0.221,1.08-0.894,1.606-1.943,1.606h-7.915c0.194,0.294,0.279,0.614,0.252,1.025
		h7.678c1.579,0,2.243,0.691,1.955,2.044l-0.256,1.249c-0.202,0.906-0.564,1.555-1.115,1.928c-0.552,0.385-1.27,0.583-2.171,0.583
		h-1.435c-0.438,0-0.896-0.025-1.405-0.08c-0.523-0.029-0.901-0.146-1.181-0.359c-0.235-0.288-0.319-0.545-0.266-0.812
		c0.034-0.172,0.1-0.318,0.212-0.465c0.277-0.21,0.609-0.355,1.025-0.438c0.401-0.092,0.791-0.117,1.165-0.117h1.114
		c0.238,0,0.354-0.029,0.381-0.119l0.188-0.905c0.013-0.063-0.067-0.118-0.215-0.118h-6.158l-0.438,2.046
		c-0.096,0.492-0.334,0.903-0.642,1.261c-0.421,0.467-1,0.692-1.7,0.692c-0.693,0-1.139-0.226-1.371-0.665
		c-0.215-0.357-0.272-0.795-0.165-1.287l0.435-2.046h-6.042c-0.183,0-0.254,0.093-0.284,0.238l-0.365,1.689
		c-0.259,0.942-0.965,1.434-2.122,1.487c-1.156-0.053-1.671-0.544-1.53-1.487l0.584-2.748c0.229-1.051,1.129-1.568,2.735-1.568
		h7.569c0.15-0.439,0.366-0.796,0.677-1.025h-7.679c-1.085,0-1.492-0.526-1.269-1.606l0.876-4.115
		c0.229-1.061,0.862-1.582,1.94-1.582h5.905c0.102-0.237,0.217-0.502,0.368-0.794c-3.869,0.236-6.993,0.329-9.359,0.329
		c-0.398,0-0.646-0.094-0.753-0.291c-0.111-0.185-0.113-0.439-0.022-0.852c0.068-0.357,0.218-0.636,0.438-0.822
		c0.139-0.106,0.42-0.2,0.793-0.2c1.466-0.026,2.912-0.094,4.359-0.144l0.183-0.875h-3.76c-0.292,0-0.488-0.096-0.587-0.267
		c-0.15-0.12-0.189-0.374-0.099-0.786c0.078-0.358,0.207-0.585,0.42-0.729c0.141-0.12,0.352-0.176,0.684-0.176h3.876
		c0.107-0.209,0.26-0.382,0.403-0.5c0.065-0.057,0.171-0.115,0.271-0.177h-4.739c-0.291,0-0.502-0.085-0.613-0.263
		c-0.149-0.115-0.18-0.379-0.104-0.757c0.081-0.352,0.224-0.613,0.426-0.758c0.142-0.12,0.364-0.18,0.711-0.18h4.209l0.168-0.79
		h-3.653c-0.291,0-0.481-0.054-0.592-0.232c-0.145-0.146-0.175-0.404-0.1-0.785c0.081-0.351,0.225-0.616,0.427-0.763
		c0.135-0.085,0.36-0.145,0.68-0.145L108.518,17.004L108.518,17.004z M120.024,32.979l0.148-0.702h-13.931l-0.149,0.702
		c-0.058,0.239,0.047,0.319,0.283,0.319h13.227C119.828,33.298,119.962,33.218,120.024,32.979 M120.484,30.789l0.123-0.559
		c0.044-0.229-0.053-0.346-0.28-0.346h-13.237c-0.229,0-0.369,0.117-0.414,0.346l-0.122,0.559H120.484z M123.455,17.91l0.103-0.471
		c0.178-0.842,0.864-1.314,1.979-1.373c1.118,0,1.599,0.47,1.435,1.373l-0.092,0.471h1.806c0.412,0,0.716,0.089,0.879,0.262
		c0.17,0.146,0.215,0.464,0.111,0.996c-0.099,0.465-0.25,0.757-0.404,0.93c-0.296,0.292-0.68,0.438-1.147,0.438h-1.805l-0.894,4.209
		c-0.182,0.825-0.572,1.461-1.206,1.927c-0.639,0.556-1.422,0.821-2.364,0.821c-0.93,0-1.779-0.146-2.525-0.476
		c-0.417-0.228-0.533-0.667-0.406-1.249l0.057-0.24c-0.127,0.041-0.188,0.041-0.245,0.041c-0.436,0-0.747-0.07-0.91-0.241
		c-0.152-0.118-0.215-0.263-0.2-0.464c-0.169-0.583-0.406-1.341-0.744-2.283c-0.016-0.053,0.002-0.147,0.019-0.229
		c0.041-0.147,0.104-0.327,0.234-0.529c0.166-0.233,0.415-0.44,0.764-0.585c0.227-0.086,0.44-0.146,0.651-0.146
		c0.521,0,0.869,0.173,1.04,0.467c0.229,0.265,0.449,0.758,0.663,1.526c0.126,0.519,0.191,0.931,0.121,1.225l-0.006,0.026
		c0.021,0.025,0.048,0.025,0.048,0.025c0.321,0.184,0.627,0.264,0.916,0.264c0.467,0,0.738-0.173,0.815-0.557l0.749-3.534h-5.141
		c-0.409,0-0.668-0.114-0.82-0.346c-0.207-0.179-0.25-0.497-0.135-1.022c0.095-0.497,0.297-0.85,0.568-1.023
		c0.201-0.145,0.51-0.233,0.95-0.233H123.455L123.455,17.91z"/>
	<path fill="#000017" d="M135.461,22.025c0.043,0.062,0.076,0.089,0.103,0.089l0.871-4.09c0.133-0.61,0.407-1.083,0.86-1.429
		c0.36-0.351,0.834-0.53,1.481-0.53c0.585,0,1.019,0.179,1.294,0.53c0.266,0.346,0.375,0.817,0.243,1.429l-0.725,3.418
		c0.068-0.031,0.129-0.06,0.201-0.085c0.215-0.092,0.44-0.146,0.639-0.146c0.531,0,0.868,0.172,1.039,0.463
		c0.304,0.498,0.595,1.463,0.87,2.922c0.145,0.971,0.185,1.729,0.072,2.311c-0.092,0.4-0.278,0.732-0.521,0.905
		c-0.35,0.291-0.769,0.466-1.234,0.466c-0.502,0-0.836-0.056-1.007-0.204c-0.149-0.117-0.241-0.262-0.228-0.474
		c-0.096-0.93-0.246-2.008-0.437-3.294l-3.492,16.415c-0.098,0.492-0.334,0.903-0.642,1.26c-0.447,0.467-1.024,0.692-1.728,0.692
		c-0.667,0-1.123-0.226-1.345-0.664c-0.223-0.358-0.272-0.795-0.164-1.287l3.07-14.437c-1.113,2.748-1.921,4.503-2.396,5.324
		c-0.275,0.519-0.831,0.784-1.652,0.784c-0.52,0-0.903-0.146-1.134-0.464c-0.264-0.203-0.332-0.613-0.192-1.264
		c0.045-0.226,0.15-0.583,0.335-1.048c1.237-2.22,2.354-4.607,3.336-7.156c0.287-0.521,0.671-0.789,1.188-0.789
		C134.748,21.676,135.163,21.795,135.461,22.025 M152.559,16.506c0.331,0.351,0.438,0.82,0.312,1.403l-0.504,2.394h4.117
		c0.585,0,1.02,0.145,1.25,0.412c0.271,0.231,0.349,0.729,0.171,1.52c-0.143,0.665-0.348,1.104-0.577,1.34
		c-0.401,0.412-0.972,0.611-1.675,0.611h-7.422l-2.661,12.538c-0.137,0.635,0.098,0.929,0.708,0.929h6.627
		c0.998,0,1.35,0.641,1.087,1.927c-0.275,1.289-0.915,1.928-1.9,1.928h-8.101c-2.361,0-3.275-1.197-2.78-3.535l2.932-13.787h-0.585
		c-0.545,0-0.957-0.146-1.212-0.464c-0.295-0.266-0.36-0.758-0.206-1.489c0.161-0.761,0.444-1.263,0.859-1.553
		c0.27-0.233,0.749-0.378,1.388-0.378h3.769l0.505-2.394c0.108-0.496,0.385-0.967,0.889-1.432c0.354-0.265,0.849-0.412,1.551-0.412
		C151.806,16.067,152.295,16.213,152.559,16.506"/>
	<path fill="#00A0E9" d="M12.745,17.475c0.473-2.067,1.692-3.866,4.709-3.866s3.497,1.799,3.017,3.866l-4.497,21.338
		c-0.479,2.063-1.693,3.862-4.716,3.862c-3.018,0-3.491-1.799-3.018-3.862L12.745,17.475z"/>
	<path fill="#00A0E9" d="M38.688,11.176h-8.205c-2.49,0-4.237-1.275-3.76-3.656c0.528-2.385,2.806-3.654,5.294-3.654h25.101
		c2.49,0,4.232,1.269,3.705,3.654c-0.475,2.381-2.752,3.656-5.241,3.656h-8.207l-5.773,27.166c-0.583,2.585-2.647,4.334-5.301,4.334
		c-2.645,0-3.971-1.749-3.387-4.334L38.688,11.176z"/>
	<path fill="#000017" d="M8,4.835C8,2.168,10.848,0,14.359,0c3.511,0,6.358,2.168,6.358,4.835c0,2.668-2.847,4.836-6.358,4.836
		C10.848,9.671,8,7.503,8,4.835"/>
	<polygon fill="#000017" points="12.399,7.981 18.188,11.366 18.188,6.94 	"/>
</g>
</svg>
